<svg width="582.301" height="111.3" viewBox="0 0 582.301 111.3" xmlns="http://www.w3.org/2000/svg"><g id="svgGroup" stroke-linecap="round" fill-rule="evenodd" font-size="9pt" stroke="#000000" stroke-width="0mm" fill="#ffffff" style="stroke:#000000;stroke-width:0mm;fill:#ffffff"><path d="M 64.201 103.4 A 4.085 4.085 0 0 0 64.643 102.703 Q 65.343 101.356 66.101 98.4 Q 66.788 95.719 67.547 92.329 A 322.877 322.877 0 0 0 68.251 89.1 A 261.643 261.643 0 0 0 69.649 82.038 A 317.621 317.621 0 0 0 70.451 77.5 A 3100.889 3100.889 0 0 0 71.97 68.453 A 2764.291 2764.291 0 0 0 72.451 65.55 Q 73.399 59.811 74.098 55.168 A 318.753 318.753 0 0 0 74.101 55.15 Q 74.775 50.674 75.17 48.561 A 53.577 53.577 0 0 1 75.201 48.4 Q 76.301 41.5 77.451 34.75 Q 78.601 28 80.001 21.1 Q 80.501 18.9 81.001 16.25 Q 81.501 13.6 82.101 10.9 Q 82.701 8.2 83.501 5.65 Q 84.301 3.1 85.201 1.1 A 3.069 3.069 0 0 1 85.538 0.597 Q 85.757 0.336 86.007 0.189 A 1.347 1.347 0 0 1 86.701 0 A 1.634 1.634 0 0 1 87.885 0.485 A 2.007 2.007 0 0 1 87.901 0.5 A 1.635 1.635 0 0 1 88.401 1.678 A 1.948 1.948 0 0 1 88.401 1.7 Q 88.401 1.854 88.283 2.125 A 3.598 3.598 0 0 1 88.201 2.3 Q 85.401 9.8 83.951 17.65 Q 82.501 25.5 81.101 33.3 Q 78.601 47.3 76.501 61.15 Q 74.401 75 71.601 88.9 Q 71.301 90.2 70.751 93.2 Q 70.201 96.2 69.301 99.25 A 32.819 32.819 0 0 1 68.246 102.293 A 25.105 25.105 0 0 1 67.151 104.65 Q 65.901 107 64.301 107 A 3.068 3.068 0 0 1 62.068 106.048 A 4.642 4.642 0 0 1 61.601 105.5 A 25.936 25.936 0 0 1 60.846 104.417 Q 60.276 103.55 59.901 102.8 Q 58.601 100.3 57.651 97.5 Q 56.701 94.7 56.001 91.8 Q 55.301 88.9 54.701 86 A 281.115 281.115 0 0 1 53.857 81.763 A 250.78 250.78 0 0 1 53.601 80.4 Q 50.901 67 49.051 53.6 Q 47.201 40.2 45.601 26.6 Q 45.101 21.9 44.551 17.25 Q 44.001 12.6 44.001 7.9 Q 44.001 6.9 44.451 6.05 A 1.507 1.507 0 0 1 45.535 5.244 A 2.346 2.346 0 0 1 46.001 5.2 Q 47.401 5.2 47.801 6.65 Q 48.201 8.1 48.401 9.1 Q 48.801 10.7 49.201 12.4 A 14.875 14.875 0 0 1 49.575 14.888 A 13.127 13.127 0 0 1 49.601 15.7 A 2.303 2.303 0 0 1 49.521 16.333 Q 49.318 17.043 48.593 17.232 A 2.357 2.357 0 0 1 48.001 17.3 Q 48.23 19.367 48.577 22.666 A 2131.799 2131.799 0 0 1 48.801 24.8 A 491.97 491.97 0 0 0 49.324 29.586 Q 49.611 32.1 49.952 34.896 A 826.334 826.334 0 0 0 50.051 35.7 Q 50.801 41.8 51.751 48.8 Q 52.701 55.8 53.801 62.85 Q 54.901 69.9 56.151 76.55 Q 57.401 83.2 58.701 88.7 A 117.331 117.331 0 0 0 59.69 92.6 Q 60.212 94.514 60.75 96.184 A 61.154 61.154 0 0 0 61.401 98.1 Q 62.494 101.145 63.587 102.666 A 5.934 5.934 0 0 0 64.201 103.4 Z M 331.401 103.4 A 4.085 4.085 0 0 0 331.843 102.703 Q 332.543 101.356 333.301 98.4 Q 333.988 95.719 334.747 92.329 A 322.877 322.877 0 0 0 335.451 89.1 A 261.643 261.643 0 0 0 336.849 82.038 A 317.621 317.621 0 0 0 337.651 77.5 A 3100.889 3100.889 0 0 0 339.17 68.453 A 2764.291 2764.291 0 0 0 339.651 65.55 Q 340.599 59.811 341.298 55.168 A 318.753 318.753 0 0 0 341.301 55.15 Q 341.975 50.674 342.37 48.561 A 53.577 53.577 0 0 1 342.401 48.4 Q 343.501 41.5 344.651 34.75 Q 345.801 28 347.201 21.1 Q 347.701 18.9 348.201 16.25 Q 348.701 13.6 349.301 10.9 Q 349.901 8.2 350.701 5.65 Q 351.501 3.1 352.401 1.1 A 3.069 3.069 0 0 1 352.738 0.597 Q 352.957 0.336 353.207 0.189 A 1.347 1.347 0 0 1 353.901 0 A 1.634 1.634 0 0 1 355.085 0.485 A 2.007 2.007 0 0 1 355.101 0.5 A 1.635 1.635 0 0 1 355.601 1.678 A 1.948 1.948 0 0 1 355.601 1.7 Q 355.601 1.854 355.483 2.125 A 3.598 3.598 0 0 1 355.401 2.3 Q 352.601 9.8 351.151 17.65 Q 349.701 25.5 348.301 33.3 Q 345.801 47.3 343.701 61.15 Q 341.601 75 338.801 88.9 Q 338.501 90.2 337.951 93.2 Q 337.401 96.2 336.501 99.25 A 32.819 32.819 0 0 1 335.446 102.293 A 25.105 25.105 0 0 1 334.351 104.65 Q 333.101 107 331.501 107 A 3.068 3.068 0 0 1 329.268 106.048 A 4.642 4.642 0 0 1 328.801 105.5 A 25.936 25.936 0 0 1 328.046 104.417 Q 327.476 103.55 327.101 102.8 Q 325.801 100.3 324.851 97.5 Q 323.901 94.7 323.201 91.8 Q 322.501 88.9 321.901 86 A 281.115 281.115 0 0 1 321.057 81.763 A 250.78 250.78 0 0 1 320.801 80.4 Q 318.101 67 316.251 53.6 Q 314.401 40.2 312.801 26.6 Q 312.301 21.9 311.751 17.25 Q 311.201 12.6 311.201 7.9 Q 311.201 6.9 311.651 6.05 A 1.507 1.507 0 0 1 312.735 5.244 A 2.346 2.346 0 0 1 313.201 5.2 Q 314.601 5.2 315.001 6.65 Q 315.401 8.1 315.601 9.1 Q 316.001 10.7 316.401 12.4 A 14.875 14.875 0 0 1 316.775 14.888 A 13.127 13.127 0 0 1 316.801 15.7 A 2.303 2.303 0 0 1 316.721 16.333 Q 316.518 17.043 315.793 17.232 A 2.357 2.357 0 0 1 315.201 17.3 Q 315.43 19.367 315.777 22.666 A 2131.799 2131.799 0 0 1 316.001 24.8 A 491.97 491.97 0 0 0 316.524 29.586 Q 316.811 32.1 317.152 34.896 A 826.334 826.334 0 0 0 317.251 35.7 Q 318.001 41.8 318.951 48.8 Q 319.901 55.8 321.001 62.85 Q 322.101 69.9 323.351 76.55 Q 324.601 83.2 325.901 88.7 A 117.331 117.331 0 0 0 326.89 92.6 Q 327.412 94.514 327.95 96.184 A 61.154 61.154 0 0 0 328.601 98.1 Q 329.694 101.145 330.787 102.666 A 5.934 5.934 0 0 0 331.401 103.4 Z M 150.501 15.2 Q 150.501 18.8 149.901 23.55 Q 149.301 28.3 148.151 33.2 A 96.934 96.934 0 0 1 145.547 42.319 A 89.349 89.349 0 0 1 145.451 42.6 A 45.904 45.904 0 0 1 144.008 46.289 Q 143.156 48.206 142.197 49.815 A 27.294 27.294 0 0 1 141.901 50.3 Q 142.001 55.8 142.351 61.2 Q 142.701 66.6 143.301 72 A 545.203 545.203 0 0 1 143.52 70.913 Q 143.764 69.701 144.089 68.117 A 1801.213 1801.213 0 0 1 144.401 66.6 Q 145.101 63.2 146.351 59.9 Q 147.601 56.6 149.451 54.15 A 7.206 7.206 0 0 1 150.778 52.781 A 4.975 4.975 0 0 1 153.901 51.7 A 5.029 5.029 0 0 1 155.283 51.882 A 3.998 3.998 0 0 1 156.751 52.65 Q 157.901 53.6 158.601 54.95 A 11.719 11.719 0 0 1 159.552 57.48 A 13.299 13.299 0 0 1 159.651 57.9 A 45.566 45.566 0 0 1 160.014 59.73 A 36.528 36.528 0 0 1 160.201 60.9 A 22.468 22.468 0 0 1 160.253 61.297 Q 160.325 61.879 160.432 62.891 A 229.201 229.201 0 0 1 160.501 63.55 A 60.058 60.058 0 0 0 161.008 67.294 A 65.643 65.643 0 0 0 161.051 67.55 Q 161.401 69.6 161.951 71.2 Q 162.501 72.8 163.301 72.8 A 2.139 2.139 0 0 0 164.086 72.638 Q 164.701 72.396 165.396 71.789 A 8.08 8.08 0 0 0 165.551 71.65 A 22.431 22.431 0 0 0 166.957 70.23 A 28.482 28.482 0 0 0 168.051 68.95 Q 169.301 67.4 170.351 65.8 Q 171.398 64.204 171.899 63.404 A 34.169 34.169 0 0 0 171.901 63.4 Q 172.301 62.6 172.701 61.75 Q 173.101 60.9 173.701 60.2 A 1.635 1.635 0 0 1 174.879 59.7 A 1.948 1.948 0 0 1 174.901 59.7 A 1.634 1.634 0 0 1 176.085 60.185 A 2.007 2.007 0 0 1 176.101 60.2 A 1.635 1.635 0 0 1 176.601 61.378 A 1.948 1.948 0 0 1 176.601 61.4 Q 176.601 61.957 175.87 63.158 A 14.771 14.771 0 0 1 175.751 63.35 Q 174.901 64.7 174.501 65.3 A 112.869 112.869 0 0 1 173.845 66.353 Q 173.548 66.823 173.212 67.348 A 231.05 231.05 0 0 1 172.501 68.45 Q 171.301 70.3 169.801 72 Q 168.301 73.7 166.651 74.9 A 6.876 6.876 0 0 1 165.263 75.694 A 5.048 5.048 0 0 1 163.301 76.1 A 4.536 4.536 0 0 1 161.859 75.882 A 3.653 3.653 0 0 1 160.051 74.55 A 9.393 9.393 0 0 1 159.011 72.739 Q 158.591 71.788 158.301 70.65 A 34.979 34.979 0 0 1 157.618 67.253 A 41.51 41.51 0 0 1 157.401 65.6 A 148.069 148.069 0 0 0 157.006 62.362 A 120.967 120.967 0 0 0 156.751 60.55 A 22.722 22.722 0 0 0 156.446 58.9 Q 156.157 57.619 155.751 56.65 Q 155.361 55.72 154.737 55.348 A 1.793 1.793 0 0 0 153.801 55.1 A 1.639 1.639 0 0 0 152.973 55.34 Q 152.445 55.646 151.917 56.342 A 6.863 6.863 0 0 0 151.801 56.5 Q 150.941 57.703 150.23 59.423 A 21.921 21.921 0 0 0 150.001 60 Q 149.201 62.1 148.451 64.7 A 66.962 66.962 0 0 0 147.397 68.826 A 59.477 59.477 0 0 0 147.201 69.75 Q 146.701 72.2 146.351 74.15 Q 146.001 76.1 145.801 76.9 Q 145.601 78 145.401 79.45 A 22.499 22.499 0 0 1 145.237 80.474 Q 145.088 81.275 144.901 81.9 A 2.092 2.092 0 0 1 144.671 82.499 Q 144.256 83.2 143.301 83.2 A 1.703 1.703 0 0 1 142.153 82.756 A 2.464 2.464 0 0 1 141.901 82.5 A 3.091 3.091 0 0 1 141.625 81.957 Q 141.256 81.052 140.929 79.247 A 38.441 38.441 0 0 1 140.801 78.5 A 92.991 92.991 0 0 1 140.382 75.596 Q 140.19 74.104 140.015 72.434 A 164.035 164.035 0 0 1 139.901 71.3 Q 139.501 67.2 139.251 62.55 Q 139.001 57.9 138.801 53.9 Q 138.201 54.1 138.001 54.1 A 2.303 2.303 0 0 1 137.368 54.021 Q 136.658 53.817 136.469 53.093 A 2.357 2.357 0 0 1 136.401 52.5 Q 136.401 51.861 137.108 51.056 A 5.899 5.899 0 0 1 137.251 50.9 A 21.837 21.837 0 0 0 137.839 50.253 Q 138.113 49.939 138.336 49.654 A 10.224 10.224 0 0 0 138.601 49.3 A 60.764 60.764 0 0 1 138.54 48.163 Q 138.515 47.604 138.506 47.114 A 30.248 30.248 0 0 1 138.501 46.55 L 138.501 44.6 A 68.886 68.886 0 0 1 138.507 43.735 Q 138.526 42.263 138.601 39.75 A 121.07 121.07 0 0 1 138.749 36.412 Q 138.85 34.658 139.005 32.711 A 203.081 203.081 0 0 1 139.051 32.15 Q 139.401 27.9 140.001 23.35 Q 140.601 18.8 141.501 15.05 A 36.086 36.086 0 0 1 142.232 12.42 Q 142.642 11.146 143.113 10.07 A 18.048 18.048 0 0 1 143.701 8.85 A 7.94 7.94 0 0 1 144.332 7.836 Q 145.399 6.4 146.701 6.4 A 3.144 3.144 0 0 1 147.694 6.55 A 2.546 2.546 0 0 1 148.901 7.4 Q 149.701 8.4 150.051 9.8 Q 150.401 11.2 150.451 12.7 Q 150.5 14.164 150.501 15.152 A 40.744 40.744 0 0 1 150.501 15.2 Z M 259.801 15.2 Q 259.801 18.8 259.201 23.55 Q 258.601 28.3 257.451 33.2 A 96.934 96.934 0 0 1 254.847 42.319 A 89.349 89.349 0 0 1 254.751 42.6 A 45.904 45.904 0 0 1 253.308 46.289 Q 252.456 48.206 251.497 49.815 A 27.294 27.294 0 0 1 251.201 50.3 Q 251.301 55.8 251.651 61.2 Q 252.001 66.6 252.601 72 A 545.203 545.203 0 0 1 252.82 70.913 Q 253.064 69.701 253.389 68.117 A 1801.213 1801.213 0 0 1 253.701 66.6 Q 254.401 63.2 255.651 59.9 Q 256.901 56.6 258.751 54.15 A 7.206 7.206 0 0 1 260.078 52.781 A 4.975 4.975 0 0 1 263.201 51.7 A 5.029 5.029 0 0 1 264.583 51.882 A 3.998 3.998 0 0 1 266.051 52.65 Q 267.201 53.6 267.901 54.95 A 11.719 11.719 0 0 1 268.852 57.48 A 13.299 13.299 0 0 1 268.951 57.9 A 45.566 45.566 0 0 1 269.314 59.73 A 36.528 36.528 0 0 1 269.501 60.9 A 22.468 22.468 0 0 1 269.553 61.297 Q 269.625 61.879 269.732 62.891 A 229.201 229.201 0 0 1 269.801 63.55 A 60.058 60.058 0 0 0 270.308 67.294 A 65.643 65.643 0 0 0 270.351 67.55 Q 270.701 69.6 271.251 71.2 Q 271.801 72.8 272.601 72.8 A 2.139 2.139 0 0 0 273.386 72.638 Q 274.001 72.396 274.696 71.789 A 8.08 8.08 0 0 0 274.851 71.65 A 22.431 22.431 0 0 0 276.257 70.23 A 28.482 28.482 0 0 0 277.351 68.95 Q 278.601 67.4 279.651 65.8 Q 280.698 64.204 281.199 63.404 A 34.169 34.169 0 0 0 281.201 63.4 Q 281.601 62.6 282.001 61.75 Q 282.401 60.9 283.001 60.2 A 1.635 1.635 0 0 1 284.179 59.7 A 1.948 1.948 0 0 1 284.201 59.7 A 1.634 1.634 0 0 1 285.385 60.185 A 2.007 2.007 0 0 1 285.401 60.2 A 1.635 1.635 0 0 1 285.901 61.378 A 1.948 1.948 0 0 1 285.901 61.4 Q 285.901 61.957 285.17 63.158 A 14.771 14.771 0 0 1 285.051 63.35 Q 284.201 64.7 283.801 65.3 A 112.869 112.869 0 0 1 283.145 66.353 Q 282.848 66.823 282.512 67.348 A 231.05 231.05 0 0 1 281.801 68.45 Q 280.601 70.3 279.101 72 Q 277.601 73.7 275.951 74.9 A 6.876 6.876 0 0 1 274.563 75.694 A 5.048 5.048 0 0 1 272.601 76.1 A 4.536 4.536 0 0 1 271.159 75.882 A 3.653 3.653 0 0 1 269.351 74.55 A 9.393 9.393 0 0 1 268.311 72.739 Q 267.891 71.788 267.601 70.65 A 34.979 34.979 0 0 1 266.918 67.253 A 41.51 41.51 0 0 1 266.701 65.6 A 148.069 148.069 0 0 0 266.306 62.362 A 120.967 120.967 0 0 0 266.051 60.55 A 22.722 22.722 0 0 0 265.746 58.9 Q 265.457 57.619 265.051 56.65 Q 264.661 55.72 264.037 55.348 A 1.793 1.793 0 0 0 263.101 55.1 A 1.639 1.639 0 0 0 262.273 55.34 Q 261.745 55.646 261.217 56.342 A 6.863 6.863 0 0 0 261.101 56.5 Q 260.241 57.703 259.53 59.423 A 21.921 21.921 0 0 0 259.301 60 Q 258.501 62.1 257.751 64.7 A 66.962 66.962 0 0 0 256.697 68.826 A 59.477 59.477 0 0 0 256.501 69.75 Q 256.001 72.2 255.651 74.15 Q 255.301 76.1 255.101 76.9 Q 254.901 78 254.701 79.45 A 22.499 22.499 0 0 1 254.537 80.474 Q 254.388 81.275 254.201 81.9 A 2.092 2.092 0 0 1 253.971 82.499 Q 253.556 83.2 252.601 83.2 A 1.703 1.703 0 0 1 251.453 82.756 A 2.464 2.464 0 0 1 251.201 82.5 A 3.091 3.091 0 0 1 250.925 81.957 Q 250.556 81.052 250.229 79.247 A 38.441 38.441 0 0 1 250.101 78.5 A 92.991 92.991 0 0 1 249.682 75.596 Q 249.49 74.104 249.315 72.434 A 164.035 164.035 0 0 1 249.201 71.3 Q 248.801 67.2 248.551 62.55 Q 248.301 57.9 248.101 53.9 Q 247.501 54.1 247.301 54.1 A 2.303 2.303 0 0 1 246.668 54.021 Q 245.958 53.817 245.769 53.093 A 2.357 2.357 0 0 1 245.701 52.5 Q 245.701 51.861 246.408 51.056 A 5.899 5.899 0 0 1 246.551 50.9 A 21.837 21.837 0 0 0 247.139 50.253 Q 247.413 49.939 247.636 49.654 A 10.224 10.224 0 0 0 247.901 49.3 A 60.764 60.764 0 0 1 247.84 48.163 Q 247.815 47.604 247.806 47.114 A 30.248 30.248 0 0 1 247.801 46.55 L 247.801 44.6 A 68.886 68.886 0 0 1 247.807 43.735 Q 247.826 42.263 247.901 39.75 A 121.07 121.07 0 0 1 248.049 36.412 Q 248.15 34.658 248.305 32.711 A 203.081 203.081 0 0 1 248.351 32.15 Q 248.701 27.9 249.301 23.35 Q 249.901 18.8 250.801 15.05 A 36.086 36.086 0 0 1 251.532 12.42 Q 251.942 11.146 252.413 10.07 A 18.048 18.048 0 0 1 253.001 8.85 A 7.94 7.94 0 0 1 253.632 7.836 Q 254.699 6.4 256.001 6.4 A 3.144 3.144 0 0 1 256.994 6.55 A 2.546 2.546 0 0 1 258.201 7.4 Q 259.001 8.4 259.351 9.8 Q 259.701 11.2 259.751 12.7 Q 259.8 14.164 259.801 15.152 A 40.744 40.744 0 0 1 259.801 15.2 Z M 122.647 54.61 A 6.819 6.819 0 0 0 122.301 54.6 Q 119.701 54.6 117.501 55.95 Q 115.301 57.3 113.751 59.35 Q 112.201 61.4 111.301 63.9 A 16.506 16.506 0 0 0 110.928 65.067 A 13.886 13.886 0 0 0 110.401 68.8 A 7.205 7.205 0 0 0 110.424 69.383 A 5.822 5.822 0 0 0 111.351 72.15 A 3.049 3.049 0 0 0 113.207 73.46 A 4.767 4.767 0 0 0 114.401 73.6 A 4.441 4.441 0 0 0 115.728 73.391 A 5.893 5.893 0 0 0 116.851 72.9 Q 118.101 72.2 119.201 71.25 Q 120.301 70.3 121.251 69.15 Q 122.201 68 122.901 67.1 Q 123.001 69.8 123.101 72.45 Q 123.201 75.1 123.301 77.8 Q 120.801 80.7 118.601 83.85 Q 116.401 87 114.751 90.3 Q 113.101 93.6 112.101 97 Q 111.101 100.4 111.101 104 A 14.183 14.183 0 0 0 111.101 104.019 A 15.503 15.503 0 0 0 111.301 106.45 Q 111.501 107.7 112.001 108.8 A 5.471 5.471 0 0 0 112.034 108.873 A 4.683 4.683 0 0 0 113.401 110.6 A 2.889 2.889 0 0 0 113.788 110.854 Q 114.603 111.3 115.801 111.3 A 5.28 5.28 0 0 0 118.311 110.691 A 6.15 6.15 0 0 0 119.951 109.4 A 11.5 11.5 0 0 0 120.194 109.127 Q 121.036 108.152 121.745 106.899 A 19.387 19.387 0 0 0 122.901 104.45 A 35.555 35.555 0 0 0 123.801 101.865 A 43.96 43.96 0 0 0 124.851 97.7 Q 125.601 94 125.951 90.45 Q 126.301 86.9 126.451 83.8 Q 126.601 80.7 126.601 79 Q 129.301 75.8 132.001 73.05 A 3641.319 3641.319 0 0 0 132.748 72.289 Q 134.996 69.998 136.801 68.15 Q 138.901 66 140.251 64.5 Q 141.601 63 141.601 62.3 A 1.948 1.948 0 0 0 141.601 62.278 A 1.635 1.635 0 0 0 141.101 61.1 A 2.007 2.007 0 0 0 141.085 61.085 A 1.634 1.634 0 0 0 139.901 60.6 A 1.397 1.397 0 0 0 139.593 60.636 Q 139.221 60.72 138.801 61 Q 138.501 61.3 138.301 61.65 A 12.452 12.452 0 0 1 138.176 61.864 A 10.543 10.543 0 0 1 137.901 62.3 A 16.378 16.378 0 0 1 137.645 62.6 A 18.544 18.544 0 0 1 136.801 63.5 L 135.701 64.6 L 131.151 69.15 Q 128.801 71.5 126.501 74.1 Q 126.401 70.8 126.251 67.5 Q 126.101 64.2 126.101 60.8 A 1.948 1.948 0 0 0 126.101 60.778 A 1.635 1.635 0 0 0 125.601 59.6 A 2.007 2.007 0 0 0 125.585 59.585 A 1.634 1.634 0 0 0 124.401 59.1 A 2.281 2.281 0 0 0 124.304 59.102 Q 124.098 59.111 123.924 59.158 A 1.186 1.186 0 0 0 123.451 59.4 A 2.355 2.355 0 0 0 123.402 59.443 Q 123.231 59.598 123.073 59.801 A 3.961 3.961 0 0 0 122.801 60.2 A 19.442 19.442 0 0 0 122.658 60.568 A 16.089 16.089 0 0 0 122.451 61.15 A 4.154 4.154 0 0 1 122.26 61.62 A 5.671 5.671 0 0 1 122.001 62.1 A 6.259 6.259 0 0 1 121.817 62.487 Q 121.479 63.145 120.801 64.2 Q 119.901 65.6 118.801 66.95 A 21.607 21.607 0 0 1 117.969 67.913 A 17.662 17.662 0 0 1 116.551 69.3 A 7.571 7.571 0 0 1 116.447 69.389 Q 115.36 70.3 114.501 70.3 A 1.662 1.662 0 0 1 114.346 70.293 Q 114.007 70.262 113.86 70.082 A 0.514 0.514 0 0 1 113.751 69.8 Q 113.701 69.3 113.701 68.8 A 9.79 9.79 0 0 1 113.848 67.134 A 12.603 12.603 0 0 1 114.351 65.2 Q 115.001 63.3 116.151 61.7 Q 117.301 60.1 118.851 59.05 Q 120.401 58 122.301 58 Q 123.201 58 124.001 58.35 A 4.57 4.57 0 0 0 124.276 58.46 A 3.867 3.867 0 0 0 125.601 58.7 Q 126.301 58.7 126.801 58.25 A 1.473 1.473 0 0 0 127.191 57.701 A 1.598 1.598 0 0 0 127.301 57.1 A 1.97 1.97 0 0 0 127.291 56.904 A 1.442 1.442 0 0 0 126.701 55.85 A 4.994 4.994 0 0 0 126.18 55.509 A 6.063 6.063 0 0 0 125.301 55.1 Q 124.501 54.8 123.651 54.7 A 23.59 23.59 0 0 0 123.49 54.682 Q 123.007 54.628 122.647 54.61 Z M 430.747 54.61 A 6.819 6.819 0 0 0 430.401 54.6 Q 427.801 54.6 425.601 55.95 Q 423.401 57.3 421.851 59.35 Q 420.301 61.4 419.401 63.9 A 16.506 16.506 0 0 0 419.028 65.067 A 13.886 13.886 0 0 0 418.501 68.8 A 7.205 7.205 0 0 0 418.524 69.383 A 5.822 5.822 0 0 0 419.451 72.15 A 3.049 3.049 0 0 0 421.307 73.46 A 4.767 4.767 0 0 0 422.501 73.6 A 4.441 4.441 0 0 0 423.828 73.391 A 5.893 5.893 0 0 0 424.951 72.9 Q 426.201 72.2 427.301 71.25 Q 428.401 70.3 429.351 69.15 Q 430.301 68 431.001 67.1 Q 431.101 69.8 431.201 72.45 Q 431.301 75.1 431.401 77.8 Q 428.901 80.7 426.701 83.85 Q 424.501 87 422.851 90.3 Q 421.201 93.6 420.201 97 Q 419.201 100.4 419.201 104 A 14.183 14.183 0 0 0 419.201 104.019 A 15.503 15.503 0 0 0 419.401 106.45 Q 419.601 107.7 420.101 108.8 A 5.471 5.471 0 0 0 420.134 108.873 A 4.683 4.683 0 0 0 421.501 110.6 A 2.889 2.889 0 0 0 421.888 110.854 Q 422.703 111.3 423.901 111.3 A 5.28 5.28 0 0 0 426.411 110.691 A 6.15 6.15 0 0 0 428.051 109.4 A 11.5 11.5 0 0 0 428.294 109.127 Q 429.136 108.152 429.845 106.899 A 19.387 19.387 0 0 0 431.001 104.45 A 35.555 35.555 0 0 0 431.901 101.865 A 43.96 43.96 0 0 0 432.951 97.7 Q 433.701 94 434.051 90.45 Q 434.401 86.9 434.551 83.8 Q 434.701 80.7 434.701 79 Q 437.401 75.8 440.101 73.05 A 3641.319 3641.319 0 0 0 440.848 72.289 Q 443.096 69.998 444.901 68.15 Q 447.001 66 448.351 64.5 Q 449.701 63 449.701 62.3 A 1.948 1.948 0 0 0 449.701 62.278 A 1.635 1.635 0 0 0 449.201 61.1 A 2.007 2.007 0 0 0 449.185 61.085 A 1.634 1.634 0 0 0 448.001 60.6 A 1.397 1.397 0 0 0 447.693 60.636 Q 447.321 60.72 446.901 61 Q 446.601 61.3 446.401 61.65 A 12.452 12.452 0 0 1 446.276 61.864 A 10.543 10.543 0 0 1 446.001 62.3 A 16.378 16.378 0 0 1 445.745 62.6 A 18.544 18.544 0 0 1 444.901 63.5 L 443.801 64.6 L 439.251 69.15 Q 436.901 71.5 434.601 74.1 Q 434.501 70.8 434.351 67.5 Q 434.201 64.2 434.201 60.8 A 1.948 1.948 0 0 0 434.201 60.778 A 1.635 1.635 0 0 0 433.701 59.6 A 2.007 2.007 0 0 0 433.685 59.585 A 1.634 1.634 0 0 0 432.501 59.1 A 2.281 2.281 0 0 0 432.404 59.102 Q 432.198 59.111 432.024 59.158 A 1.186 1.186 0 0 0 431.551 59.4 A 2.355 2.355 0 0 0 431.502 59.443 Q 431.331 59.598 431.173 59.801 A 3.961 3.961 0 0 0 430.901 60.2 A 19.442 19.442 0 0 0 430.758 60.568 A 16.089 16.089 0 0 0 430.551 61.15 A 4.154 4.154 0 0 1 430.36 61.62 A 5.671 5.671 0 0 1 430.101 62.1 A 6.259 6.259 0 0 1 429.917 62.487 Q 429.579 63.145 428.901 64.2 Q 428.001 65.6 426.901 66.95 A 21.607 21.607 0 0 1 426.069 67.913 A 17.662 17.662 0 0 1 424.651 69.3 A 7.571 7.571 0 0 1 424.547 69.389 Q 423.46 70.3 422.601 70.3 A 1.662 1.662 0 0 1 422.446 70.293 Q 422.107 70.262 421.96 70.082 A 0.514 0.514 0 0 1 421.851 69.8 Q 421.801 69.3 421.801 68.8 A 9.79 9.79 0 0 1 421.948 67.134 A 12.603 12.603 0 0 1 422.451 65.2 Q 423.101 63.3 424.251 61.7 Q 425.401 60.1 426.951 59.05 Q 428.501 58 430.401 58 Q 431.301 58 432.101 58.35 A 4.57 4.57 0 0 0 432.376 58.46 A 3.867 3.867 0 0 0 433.701 58.7 Q 434.401 58.7 434.901 58.25 A 1.473 1.473 0 0 0 435.291 57.701 A 1.598 1.598 0 0 0 435.401 57.1 A 1.97 1.97 0 0 0 435.391 56.904 A 1.442 1.442 0 0 0 434.801 55.85 A 4.994 4.994 0 0 0 434.28 55.509 A 6.063 6.063 0 0 0 433.401 55.1 Q 432.601 54.8 431.751 54.7 A 23.59 23.59 0 0 0 431.59 54.682 Q 431.107 54.628 430.747 54.61 Z M 178.452 56.356 A 6.464 6.464 0 0 0 178.501 55.6 A 4.084 4.084 0 0 0 178.405 54.725 A 4.816 4.816 0 0 0 178.001 53.6 A 2.292 2.292 0 0 0 177.979 53.558 Q 177.639 52.912 176.994 52.702 A 2.23 2.23 0 0 0 176.301 52.6 A 2.167 2.167 0 0 0 175.9 52.635 A 1.474 1.474 0 0 0 175.051 53.1 A 2.823 2.823 0 0 0 174.782 53.45 A 3.12 3.12 0 0 0 174.401 54.3 Q 174.001 55.5 173.801 57.4 Q 173.601 59.3 173.451 61.35 Q 173.301 63.4 173.251 65.4 Q 173.201 67.4 173.201 68.7 L 173.201 71.15 Q 173.201 72.4 173.301 73.6 Q 173.301 74.2 173.351 75.05 Q 173.401 75.9 173.551 76.75 Q 173.701 77.6 174.151 78.2 A 1.434 1.434 0 0 0 174.829 78.709 A 1.706 1.706 0 0 0 175.401 78.8 A 1.662 1.662 0 0 0 176.333 78.52 A 2.245 2.245 0 0 0 176.801 78.1 A 0.546 0.546 0 0 0 176.817 78.083 Q 177.011 77.872 177.251 77.2 A 16.844 16.844 0 0 0 177.284 77.106 Q 177.517 76.44 177.751 75.6 Q 178.001 74.7 178.251 73.9 A 95.809 95.809 0 0 0 178.253 73.893 Q 178.501 73.098 178.601 72.7 L 179.801 69.1 Q 180.501 67 181.301 64.9 Q 182.101 62.8 183.051 60.85 Q 184.001 58.9 184.901 57.7 A 4.828 4.828 0 0 0 184.916 57.685 Q 185.116 57.483 185.501 57.05 A 2.015 2.015 0 0 1 185.677 56.874 Q 185.989 56.6 186.301 56.6 A 0.396 0.396 0 0 1 186.459 56.634 Q 186.775 56.771 187.047 57.458 A 5.96 5.96 0 0 1 187.201 57.9 Q 187.601 59.2 187.901 60.85 Q 188.201 62.5 188.451 64.1 Q 188.646 65.35 188.75 65.929 A 14.235 14.235 0 0 0 188.801 66.2 Q 189.001 67.4 189.401 68.8 A 10.788 10.788 0 0 0 189.649 69.564 A 9.038 9.038 0 0 0 190.501 71.3 Q 191.201 72.4 192.251 73.15 A 3.881 3.881 0 0 0 193.544 73.749 A 4.989 4.989 0 0 0 194.801 73.9 A 5.778 5.778 0 0 0 196.566 73.616 A 7.637 7.637 0 0 0 198.051 72.95 Q 199.701 72 201.301 70.55 Q 202.901 69.1 204.201 67.5 A 54.072 54.072 0 0 0 204.964 66.539 Q 205.322 66.078 205.63 65.656 A 26.93 26.93 0 0 0 206.301 64.7 Q 206.47 64.419 206.686 64.106 A 16.096 16.096 0 0 1 207.051 63.6 A 3.084 3.084 0 0 0 207.073 63.57 Q 207.501 62.985 207.501 62.4 A 1.948 1.948 0 0 0 207.501 62.378 A 1.635 1.635 0 0 0 207.001 61.2 A 2.007 2.007 0 0 0 206.985 61.185 A 1.634 1.634 0 0 0 205.801 60.7 Q 205.201 60.7 204.701 61.2 Q 204.201 61.7 203.801 62.45 Q 203.401 63.2 202.901 63.8 Q 202.401 64.5 201.401 65.65 Q 200.401 66.8 199.251 67.9 A 19.358 19.358 0 0 1 198.67 68.433 A 16.639 16.639 0 0 1 196.901 69.8 A 6.67 6.67 0 0 1 196.202 70.211 Q 195.428 70.6 194.801 70.6 Q 193.701 70.6 193.101 69.3 A 9.337 9.337 0 0 1 192.887 68.797 Q 192.436 67.648 192.151 66.1 Q 191.801 64.2 191.501 61.9 A 28.048 28.048 0 0 0 191.207 60.097 A 22.303 22.303 0 0 0 190.601 57.7 A 12.195 12.195 0 0 0 189.993 56.14 A 9.035 9.035 0 0 0 189.001 54.5 A 3.175 3.175 0 0 0 187.438 53.383 A 3.986 3.986 0 0 0 186.201 53.2 Q 184.935 53.2 183.768 54.139 A 7.088 7.088 0 0 0 182.801 55.1 A 19.301 19.301 0 0 0 181.559 56.751 A 23.576 23.576 0 0 0 179.951 59.55 Q 178.701 62.1 177.851 64.7 A 315.267 315.267 0 0 1 177.472 65.853 Q 176.884 67.628 176.501 68.7 Q 176.501 64.9 176.801 61.2 Q 177.282 60.581 177.669 59.537 A 13.049 13.049 0 0 0 178.001 58.5 Q 178.345 57.263 178.452 56.356 Z M 394.252 56.356 A 6.464 6.464 0 0 0 394.301 55.6 A 4.084 4.084 0 0 0 394.205 54.725 A 4.816 4.816 0 0 0 393.801 53.6 A 2.292 2.292 0 0 0 393.779 53.558 Q 393.439 52.912 392.794 52.702 A 2.23 2.23 0 0 0 392.101 52.6 A 2.167 2.167 0 0 0 391.7 52.635 A 1.474 1.474 0 0 0 390.851 53.1 A 2.823 2.823 0 0 0 390.582 53.45 A 3.12 3.12 0 0 0 390.201 54.3 Q 389.801 55.5 389.601 57.4 Q 389.401 59.3 389.251 61.35 Q 389.101 63.4 389.051 65.4 Q 389.001 67.4 389.001 68.7 L 389.001 71.15 Q 389.001 72.4 389.101 73.6 Q 389.101 74.2 389.151 75.05 Q 389.201 75.9 389.351 76.75 Q 389.501 77.6 389.951 78.2 A 1.434 1.434 0 0 0 390.629 78.709 A 1.706 1.706 0 0 0 391.201 78.8 A 1.662 1.662 0 0 0 392.133 78.52 A 2.245 2.245 0 0 0 392.601 78.1 A 0.546 0.546 0 0 0 392.617 78.083 Q 392.811 77.872 393.051 77.2 A 16.844 16.844 0 0 0 393.084 77.106 Q 393.317 76.44 393.551 75.6 Q 393.801 74.7 394.051 73.9 A 95.809 95.809 0 0 0 394.053 73.893 Q 394.301 73.098 394.401 72.7 L 395.601 69.1 Q 396.301 67 397.101 64.9 Q 397.901 62.8 398.851 60.85 Q 399.801 58.9 400.701 57.7 A 4.828 4.828 0 0 0 400.716 57.685 Q 400.916 57.483 401.301 57.05 A 2.015 2.015 0 0 1 401.477 56.874 Q 401.789 56.6 402.101 56.6 A 0.396 0.396 0 0 1 402.259 56.634 Q 402.575 56.771 402.847 57.458 A 5.96 5.96 0 0 1 403.001 57.9 Q 403.401 59.2 403.701 60.85 Q 404.001 62.5 404.251 64.1 Q 404.446 65.35 404.55 65.929 A 14.235 14.235 0 0 0 404.601 66.2 Q 404.801 67.4 405.201 68.8 A 10.788 10.788 0 0 0 405.449 69.564 A 9.038 9.038 0 0 0 406.301 71.3 Q 407.001 72.4 408.051 73.15 A 3.881 3.881 0 0 0 409.344 73.749 A 4.989 4.989 0 0 0 410.601 73.9 A 5.778 5.778 0 0 0 412.366 73.616 A 7.637 7.637 0 0 0 413.851 72.95 Q 415.501 72 417.101 70.55 Q 418.701 69.1 420.001 67.5 A 54.072 54.072 0 0 0 420.764 66.539 Q 421.122 66.078 421.43 65.656 A 26.93 26.93 0 0 0 422.101 64.7 Q 422.27 64.419 422.486 64.106 A 16.096 16.096 0 0 1 422.851 63.6 A 3.084 3.084 0 0 0 422.873 63.57 Q 423.301 62.985 423.301 62.4 A 1.948 1.948 0 0 0 423.301 62.378 A 1.635 1.635 0 0 0 422.801 61.2 A 2.007 2.007 0 0 0 422.785 61.185 A 1.634 1.634 0 0 0 421.601 60.7 Q 421.001 60.7 420.501 61.2 Q 420.001 61.7 419.601 62.45 Q 419.201 63.2 418.701 63.8 Q 418.201 64.5 417.201 65.65 Q 416.201 66.8 415.051 67.9 A 19.358 19.358 0 0 1 414.47 68.433 A 16.639 16.639 0 0 1 412.701 69.8 A 6.67 6.67 0 0 1 412.002 70.211 Q 411.228 70.6 410.601 70.6 Q 409.501 70.6 408.901 69.3 A 9.337 9.337 0 0 1 408.687 68.797 Q 408.236 67.648 407.951 66.1 Q 407.601 64.2 407.301 61.9 A 28.048 28.048 0 0 0 407.007 60.097 A 22.303 22.303 0 0 0 406.401 57.7 A 12.195 12.195 0 0 0 405.793 56.14 A 9.035 9.035 0 0 0 404.801 54.5 A 3.175 3.175 0 0 0 403.238 53.383 A 3.986 3.986 0 0 0 402.001 53.2 Q 400.735 53.2 399.568 54.139 A 7.088 7.088 0 0 0 398.601 55.1 A 19.301 19.301 0 0 0 397.359 56.751 A 23.576 23.576 0 0 0 395.751 59.55 Q 394.501 62.1 393.651 64.7 A 315.267 315.267 0 0 1 393.272 65.853 Q 392.684 67.628 392.301 68.7 Q 392.301 64.9 392.601 61.2 Q 393.082 60.581 393.469 59.537 A 13.049 13.049 0 0 0 393.801 58.5 Q 394.145 57.263 394.252 56.356 Z M 370.301 67.2 L 370.301 67.1 Q 369.701 67.8 368.751 69 Q 367.801 70.2 366.751 71.3 A 14.874 14.874 0 0 1 365.049 72.836 A 13.222 13.222 0 0 1 364.551 73.2 Q 363.401 74 362.301 74 A 3.339 3.339 0 0 1 361.295 73.859 Q 360.278 73.538 359.811 72.493 A 3.419 3.419 0 0 1 359.751 72.35 Q 359.101 70.7 359.101 69.2 Q 359.101 67.643 359.571 65.684 A 24.273 24.273 0 0 1 359.801 64.8 Q 360.501 62.3 361.851 60.1 A 14.883 14.883 0 0 1 364.103 57.246 A 13.382 13.382 0 0 1 365.051 56.4 A 6.83 6.83 0 0 1 367.048 55.254 A 6.036 6.036 0 0 1 369.101 54.9 Q 369.537 54.9 370.105 55.032 A 8.01 8.01 0 0 1 370.551 55.15 Q 371.401 55.4 372.201 55.8 A 5.654 5.654 0 0 1 373.022 56.298 A 4.586 4.586 0 0 1 373.551 56.75 A 1.995 1.995 0 0 1 373.917 57.241 A 1.626 1.626 0 0 1 374.101 58 A 1.598 1.598 0 0 1 373.991 58.601 A 1.473 1.473 0 0 1 373.601 59.15 Q 373.101 59.6 372.401 59.6 A 2.272 2.272 0 0 1 370.85 58.995 A 2.932 2.932 0 0 1 370.801 58.95 Q 370.101 58.3 369.101 58.3 A 3.461 3.461 0 0 0 366.94 59.063 A 4.894 4.894 0 0 0 366.401 59.55 A 11.89 11.89 0 0 0 364.908 61.48 A 14.529 14.529 0 0 0 364.301 62.55 Q 363.401 64.3 362.901 66.15 A 19.379 19.379 0 0 0 362.637 67.243 Q 362.405 68.357 362.401 69.173 A 5.827 5.827 0 0 0 362.401 69.2 A 15.809 15.809 0 0 0 362.407 69.663 Q 362.426 70.3 362.501 70.6 A 6.39 6.39 0 0 0 363.102 70.17 Q 363.381 69.946 363.681 69.666 A 14.938 14.938 0 0 0 364.301 69.05 Q 365.301 68 366.351 66.75 Q 367.401 65.5 368.301 64.3 L 369.801 62.3 A 12.017 12.017 0 0 0 370.197 61.883 Q 370.371 61.692 370.559 61.471 A 25.058 25.058 0 0 0 370.951 61 A 2.713 2.713 0 0 1 371.372 60.578 Q 371.682 60.333 372.023 60.247 A 1.534 1.534 0 0 1 372.401 60.2 A 1.634 1.634 0 0 1 373.585 60.685 A 2.007 2.007 0 0 1 373.601 60.7 A 1.635 1.635 0 0 1 374.101 61.878 A 1.948 1.948 0 0 1 374.101 61.9 Q 374.101 63.3 373.851 64.55 Q 373.601 65.8 373.601 67.2 A 23.498 23.498 0 0 0 373.61 67.851 Q 373.62 68.183 373.638 68.551 A 39.895 39.895 0 0 0 373.651 68.8 Q 373.701 69.7 373.951 70.5 Q 374.201 71.3 374.751 71.9 A 1.793 1.793 0 0 0 375.706 72.439 A 2.712 2.712 0 0 0 376.301 72.5 Q 377.526 72.5 378.866 71.696 A 8.315 8.315 0 0 0 379.251 71.45 A 23.882 23.882 0 0 0 381.285 69.9 A 28.868 28.868 0 0 0 382.351 68.95 Q 383.901 67.5 385.201 65.95 Q 386.501 64.4 387.301 63.4 Q 387.801 62.7 388.301 61.95 Q 388.801 61.2 389.301 60.5 A 2.472 2.472 0 0 1 389.695 60.078 A 1.538 1.538 0 0 1 390.701 59.7 A 1.634 1.634 0 0 1 391.885 60.185 A 2.007 2.007 0 0 1 391.901 60.2 A 1.635 1.635 0 0 1 392.401 61.378 A 1.948 1.948 0 0 1 392.401 61.4 A 1.595 1.595 0 0 1 392.322 61.868 Q 392.142 62.451 391.551 63.25 Q 390.9 64.131 390.513 64.689 A 20.736 20.736 0 0 0 390.301 65 Q 389.201 66.4 387.601 68.3 Q 386.001 70.2 384.151 71.85 A 22.119 22.119 0 0 1 380.283 74.632 A 20.708 20.708 0 0 1 380.251 74.65 Q 378.201 75.8 376.301 75.8 A 6.691 6.691 0 0 1 374.962 75.673 Q 374.096 75.496 373.415 75.074 A 4.179 4.179 0 0 1 373.301 75 Q 372.101 74.2 371.451 72.95 A 9.039 9.039 0 0 1 370.629 70.617 A 10.36 10.36 0 0 1 370.551 70.2 Q 370.301 68.7 370.301 67.2 Z M 455.701 67.2 L 455.701 67.1 Q 455.101 67.8 454.151 69 Q 453.201 70.2 452.151 71.3 A 14.874 14.874 0 0 1 450.449 72.836 A 13.222 13.222 0 0 1 449.951 73.2 Q 448.801 74 447.701 74 A 3.339 3.339 0 0 1 446.695 73.859 Q 445.678 73.538 445.211 72.493 A 3.419 3.419 0 0 1 445.151 72.35 Q 444.501 70.7 444.501 69.2 Q 444.501 67.643 444.971 65.684 A 24.273 24.273 0 0 1 445.201 64.8 Q 445.901 62.3 447.251 60.1 A 14.883 14.883 0 0 1 449.503 57.246 A 13.382 13.382 0 0 1 450.451 56.4 A 6.83 6.83 0 0 1 452.448 55.254 A 6.036 6.036 0 0 1 454.501 54.9 Q 454.937 54.9 455.505 55.032 A 8.01 8.01 0 0 1 455.951 55.15 Q 456.801 55.4 457.601 55.8 A 5.654 5.654 0 0 1 458.422 56.298 A 4.586 4.586 0 0 1 458.951 56.75 A 1.995 1.995 0 0 1 459.317 57.241 A 1.626 1.626 0 0 1 459.501 58 A 1.598 1.598 0 0 1 459.391 58.601 A 1.473 1.473 0 0 1 459.001 59.15 Q 458.501 59.6 457.801 59.6 A 2.272 2.272 0 0 1 456.25 58.995 A 2.932 2.932 0 0 1 456.201 58.95 Q 455.501 58.3 454.501 58.3 A 3.461 3.461 0 0 0 452.34 59.063 A 4.894 4.894 0 0 0 451.801 59.55 A 11.89 11.89 0 0 0 450.308 61.48 A 14.529 14.529 0 0 0 449.701 62.55 Q 448.801 64.3 448.301 66.15 A 19.379 19.379 0 0 0 448.037 67.243 Q 447.805 68.357 447.801 69.173 A 5.827 5.827 0 0 0 447.801 69.2 A 15.809 15.809 0 0 0 447.807 69.663 Q 447.826 70.3 447.901 70.6 A 6.39 6.39 0 0 0 448.502 70.17 Q 448.781 69.946 449.081 69.666 A 14.938 14.938 0 0 0 449.701 69.05 Q 450.701 68 451.751 66.75 Q 452.801 65.5 453.701 64.3 L 455.201 62.3 A 12.017 12.017 0 0 0 455.597 61.883 Q 455.771 61.692 455.959 61.471 A 25.058 25.058 0 0 0 456.351 61 A 2.713 2.713 0 0 1 456.772 60.578 Q 457.082 60.333 457.423 60.247 A 1.534 1.534 0 0 1 457.801 60.2 A 1.634 1.634 0 0 1 458.985 60.685 A 2.007 2.007 0 0 1 459.001 60.7 A 1.635 1.635 0 0 1 459.501 61.878 A 1.948 1.948 0 0 1 459.501 61.9 Q 459.501 63.3 459.251 64.55 Q 459.001 65.8 459.001 67.2 A 23.498 23.498 0 0 0 459.01 67.851 Q 459.02 68.183 459.038 68.551 A 39.895 39.895 0 0 0 459.051 68.8 Q 459.101 69.7 459.351 70.5 Q 459.601 71.3 460.151 71.9 A 1.793 1.793 0 0 0 461.106 72.439 A 2.712 2.712 0 0 0 461.701 72.5 Q 462.926 72.5 464.266 71.696 A 8.315 8.315 0 0 0 464.651 71.45 A 23.882 23.882 0 0 0 466.685 69.9 A 28.868 28.868 0 0 0 467.751 68.95 Q 469.301 67.5 470.601 65.95 Q 471.901 64.4 472.701 63.4 Q 473.201 62.7 473.701 61.95 Q 474.201 61.2 474.701 60.5 A 2.472 2.472 0 0 1 475.095 60.078 A 1.538 1.538 0 0 1 476.101 59.7 A 1.634 1.634 0 0 1 477.285 60.185 A 2.007 2.007 0 0 1 477.301 60.2 A 1.635 1.635 0 0 1 477.801 61.378 A 1.948 1.948 0 0 1 477.801 61.4 A 1.595 1.595 0 0 1 477.722 61.868 Q 477.542 62.451 476.951 63.25 Q 476.3 64.131 475.913 64.689 A 20.736 20.736 0 0 0 475.701 65 Q 474.601 66.4 473.001 68.3 Q 471.401 70.2 469.551 71.85 A 22.119 22.119 0 0 1 465.683 74.632 A 20.708 20.708 0 0 1 465.651 74.65 Q 463.601 75.8 461.701 75.8 A 6.691 6.691 0 0 1 460.362 75.673 Q 459.496 75.496 458.815 75.074 A 4.179 4.179 0 0 1 458.701 75 Q 457.501 74.2 456.851 72.95 A 9.039 9.039 0 0 1 456.029 70.617 A 10.36 10.36 0 0 1 455.951 70.2 Q 455.701 68.7 455.701 67.2 Z M 525.101 72.2 L 519.301 84.2 L 518.101 86.8 Q 517.501 88.1 516.801 89.4 A 2.161 2.161 0 0 1 516.45 89.917 A 1.507 1.507 0 0 1 515.301 90.4 A 1.598 1.598 0 0 1 514.699 90.29 A 1.473 1.473 0 0 1 514.151 89.9 Q 513.701 89.4 513.701 88.7 A 0.156 0.156 0 0 1 513.703 88.675 Q 513.744 88.433 514.438 86.919 A 108.762 108.762 0 0 1 514.701 86.35 Q 515.677 84.252 517.129 81.154 A 3490.067 3490.067 0 0 1 517.201 81 Q 518.701 77.8 520.501 74.05 Q 522.301 70.3 523.951 66.95 Q 525.369 64.071 526.528 61.746 A 802.306 802.306 0 0 1 526.901 61 A 301.2 301.2 0 0 0 527.426 59.944 Q 528.086 58.611 528.424 57.887 A 23.916 23.916 0 0 0 528.601 57.5 Q 531.701 51.2 534.951 45.1 Q 538.201 39 541.401 32.7 Q 541.58 32.342 541.839 31.784 A 69.131 69.131 0 0 0 541.901 31.65 A 12.238 12.238 0 0 1 542.502 30.513 A 13.506 13.506 0 0 1 542.601 30.35 Q 543.001 29.7 543.451 29.25 A 1.568 1.568 0 0 1 543.914 28.923 A 1.409 1.409 0 0 1 544.501 28.8 A 1.634 1.634 0 0 1 545.685 29.285 A 2.007 2.007 0 0 1 545.701 29.3 A 1.635 1.635 0 0 1 546.201 30.478 A 1.948 1.948 0 0 1 546.201 30.5 Q 546.201 31.074 546.018 31.967 A 14.847 14.847 0 0 1 546.001 32.05 A 10.369 10.369 0 0 1 545.45 33.831 A 11.449 11.449 0 0 1 545.401 33.95 A 7.877 7.877 0 0 1 544.903 34.94 A 6.321 6.321 0 0 1 544.451 35.6 A 2.281 2.281 0 0 1 544.092 35.969 Q 543.682 36.3 543.201 36.3 Q 538.401 45.2 533.951 54.15 Q 529.501 63.1 525.101 72.2 Z M 238.16 57.18 A 7.375 7.375 0 0 0 232.601 54.8 Q 229.301 54.8 227.451 57.1 A 8.146 8.146 0 0 0 226.091 59.545 A 9.239 9.239 0 0 0 225.601 62.6 A 4.067 4.067 0 0 0 225.653 63.239 Q 225.739 63.784 225.97 64.368 A 8.056 8.056 0 0 0 226.501 65.45 A 27.818 27.818 0 0 0 227.29 66.726 A 34.547 34.547 0 0 0 228.651 68.65 Q 229.901 70.3 231.401 72 Q 232.901 73.7 234.101 75.2 A 17.333 17.333 0 0 0 233.579 75.745 A 19.277 19.277 0 0 0 231.551 78.4 Q 230.859 79.483 230.583 80.421 A 4.185 4.185 0 0 0 230.401 81.6 A 3.797 3.797 0 0 0 230.486 82.434 A 2.247 2.247 0 0 0 231.751 84.05 Q 233.101 84.7 234.701 84.7 A 4.537 4.537 0 0 0 236.89 84.151 A 5.62 5.62 0 0 0 238.251 83.1 A 6.583 6.583 0 0 0 238.697 82.59 A 4.884 4.884 0 0 0 239.801 79.5 A 4.104 4.104 0 0 0 239.8 79.405 Q 239.789 78.942 239.674 78.44 A 6.697 6.697 0 0 0 239.401 77.55 A 10.548 10.548 0 0 0 238.993 76.622 A 13.191 13.191 0 0 0 238.301 75.4 Q 240.301 73.4 242.551 71.2 Q 244.801 69 246.801 67.05 Q 248.051 65.831 249.027 64.749 A 31.828 31.828 0 0 0 250.101 63.5 Q 251.035 62.35 251.298 61.562 A 1.792 1.792 0 0 0 251.401 61 A 1.948 1.948 0 0 0 251.401 60.978 A 1.635 1.635 0 0 0 250.901 59.8 A 2.007 2.007 0 0 0 250.885 59.785 A 1.634 1.634 0 0 0 249.701 59.3 Q 249.101 59.3 248.601 59.8 A 2.337 2.337 0 0 0 248.424 59.946 A 1.904 1.904 0 0 0 248.001 60.5 A 4.704 4.704 0 0 1 247.859 60.763 A 5.553 5.553 0 0 1 247.501 61.3 Q 247.001 62 246.501 62.55 Q 246.001 63.1 245.501 63.7 Q 243.201 66 240.951 68.2 Q 238.701 70.4 236.401 72.7 Q 235.201 71.2 233.901 69.7 Q 232.601 68.2 231.451 66.85 A 32.288 32.288 0 0 1 231.039 66.358 Q 230.604 65.826 230.244 65.335 A 17.013 17.013 0 0 1 229.601 64.4 A 8.168 8.168 0 0 1 229.439 64.136 Q 228.901 63.214 228.901 62.6 Q 228.901 60.9 229.801 59.5 A 2.878 2.878 0 0 1 231.462 58.251 A 4.052 4.052 0 0 1 232.601 58.1 A 6.141 6.141 0 0 1 233.297 58.137 Q 233.663 58.179 233.966 58.268 A 2.447 2.447 0 0 1 234.601 58.55 A 7.728 7.728 0 0 1 234.644 58.578 Q 235.315 59.016 235.751 59.5 Q 236.201 60 236.601 60.45 Q 237.001 60.9 237.701 60.9 Q 238.401 60.9 238.901 60.45 A 1.473 1.473 0 0 0 239.291 59.901 A 1.598 1.598 0 0 0 239.401 59.3 A 1.771 1.771 0 0 0 239.38 59.027 A 1.33 1.33 0 0 0 239.151 58.45 Q 238.901 58.1 238.701 57.8 A 9.593 9.593 0 0 0 238.16 57.18 Z M 477.901 67.1 L 477.901 67.2 Q 478.401 65.8 479.251 63.45 Q 480.101 61.1 481.251 58.85 A 20.12 20.12 0 0 1 482.911 56.134 A 17.162 17.162 0 0 1 483.901 54.9 A 6.4 6.4 0 0 1 484.858 54.004 Q 485.496 53.527 486.167 53.333 A 3.35 3.35 0 0 1 487.101 53.2 A 4.801 4.801 0 0 1 488.131 53.303 Q 489.326 53.566 489.901 54.5 A 11.099 11.099 0 0 1 490.97 56.811 A 12.796 12.796 0 0 1 491.151 57.4 Q 491.601 59 491.951 60.3 A 2.825 2.825 0 0 0 492.15 60.837 Q 492.294 61.122 492.49 61.3 A 1.162 1.162 0 0 0 493.301 61.6 A 2.702 2.702 0 0 0 494.083 61.491 A 2.304 2.304 0 0 0 494.701 61.2 A 9.745 9.745 0 0 0 495.658 60.476 A 8.81 8.81 0 0 0 495.801 60.35 Q 496.301 59.9 496.801 59.55 Q 497.301 59.2 497.901 59.2 A 1.634 1.634 0 0 1 499.085 59.685 A 2.007 2.007 0 0 1 499.101 59.7 A 1.635 1.635 0 0 1 499.601 60.878 A 1.948 1.948 0 0 1 499.601 60.9 A 1.762 1.762 0 0 1 499.315 61.85 Q 499.16 62.097 498.921 62.333 A 3.481 3.481 0 0 1 498.851 62.4 Q 498.101 63.1 497.051 63.65 Q 496.001 64.2 494.901 64.55 A 11.741 11.741 0 0 1 494.322 64.719 Q 493.794 64.858 493.417 64.89 A 2.528 2.528 0 0 1 493.201 64.9 Q 491.598 64.9 490.626 64.196 A 3.055 3.055 0 0 1 489.901 63.45 A 9.615 9.615 0 0 1 488.846 61.423 A 12.325 12.325 0 0 1 488.401 60 Q 488.401 59.8 488.251 59.25 Q 488.101 58.7 487.951 58.1 A 7.724 7.724 0 0 0 487.799 57.571 Q 487.719 57.324 487.627 57.111 A 4.655 4.655 0 0 0 487.601 57.05 Q 487.415 56.632 487.229 56.602 A 0.18 0.18 0 0 0 487.201 56.6 Q 486.838 56.6 486.516 56.93 A 1.751 1.751 0 0 0 486.451 57 Q 486.101 57.4 485.901 57.6 Q 485.09 58.591 484.361 60.027 A 19.646 19.646 0 0 0 484.201 60.35 A 48.88 48.88 0 0 0 483.124 62.737 A 57.431 57.431 0 0 0 482.651 63.9 Q 481.901 65.8 481.301 67.6 Q 480.785 69.147 480.343 70.398 A 116.021 116.021 0 0 1 480.201 70.8 L 479.851 71.85 L 479.351 73.35 Q 479.101 74.1 478.851 74.75 Q 478.647 75.281 478.542 75.512 A 2.512 2.512 0 0 1 478.501 75.6 A 2.245 2.245 0 0 1 478.033 76.02 A 1.662 1.662 0 0 1 477.101 76.3 Q 475.92 76.3 475.564 75.31 A 2.194 2.194 0 0 1 475.501 75.1 A 24.679 24.679 0 0 1 474.856 71.626 A 27.601 27.601 0 0 1 474.801 71.1 A 44.383 44.383 0 0 1 474.62 68.307 A 37.926 37.926 0 0 1 474.601 67.1 A 73.654 73.654 0 0 1 474.608 66.123 Q 474.614 65.683 474.624 65.19 A 153.644 153.644 0 0 1 474.651 64.15 Q 474.701 62.4 474.851 60.6 Q 475.001 58.8 475.251 57.1 A 20.741 20.741 0 0 1 475.455 55.933 Q 475.563 55.406 475.691 54.955 A 9.464 9.464 0 0 1 475.901 54.3 A 3.12 3.12 0 0 1 476.282 53.45 A 2.823 2.823 0 0 1 476.551 53.1 A 1.474 1.474 0 0 1 477.4 52.635 A 2.167 2.167 0 0 1 477.801 52.6 A 2.23 2.23 0 0 1 478.494 52.702 Q 479.139 52.912 479.479 53.558 A 2.292 2.292 0 0 1 479.501 53.6 A 4.816 4.816 0 0 1 479.905 54.725 A 4.084 4.084 0 0 1 480.001 55.6 A 5.319 5.319 0 0 1 479.957 56.238 Q 479.873 56.926 479.627 57.895 A 26.246 26.246 0 0 1 479.451 58.55 A 14.334 14.334 0 0 1 479.134 59.543 Q 478.792 60.486 478.4 61.045 A 3.039 3.039 0 0 1 478.201 61.3 A 53.794 53.794 0 0 0 477.905 66.353 A 59.256 59.256 0 0 0 477.901 67.1 Z M 582.251 60.755 A 1.976 1.976 0 0 0 582.301 60.3 Q 582.301 59.7 581.801 59.2 A 5.038 5.038 0 0 0 581.362 58.81 A 6.126 6.126 0 0 0 580.601 58.3 Q 579.901 57.9 579.151 57.65 A 33.87 33.87 0 0 1 578.706 57.499 Q 578.245 57.338 577.901 57.2 Q 574.101 55.5 570.401 53.9 Q 566.701 52.3 562.901 50.7 Q 562.301 50.5 561.651 50.3 Q 561.001 50.1 560.301 50.1 Q 559.401 50.1 558.651 50.6 A 1.603 1.603 0 0 0 557.973 51.575 A 2.53 2.53 0 0 0 557.901 52.2 A 1.565 1.565 0 0 0 557.976 52.664 Q 558.104 53.077 558.451 53.55 A 9.442 9.442 0 0 0 558.814 54.014 A 10.913 10.913 0 0 0 559.751 55 A 11.36 11.36 0 0 0 560.035 55.257 A 9.955 9.955 0 0 0 561.301 56.2 A 4.568 4.568 0 0 0 561.747 56.448 Q 561.99 56.564 562.212 56.627 A 1.798 1.798 0 0 0 562.701 56.7 A 1.948 1.948 0 0 0 562.723 56.7 A 1.635 1.635 0 0 0 563.901 56.2 Q 564.401 55.7 564.301 55 Q 567.601 56.4 570.901 57.75 Q 574.201 59.1 577.401 60.6 Q 574.301 62.7 571.201 64.75 Q 568.101 66.8 564.901 68.8 A 4.427 4.427 0 0 1 564.809 68.859 Q 564.569 69.011 564.09 69.282 A 57.247 57.247 0 0 1 563.701 69.5 Q 562.801 70 561.851 70.55 A 170.263 170.263 0 0 0 561.79 70.586 Q 560.877 71.115 560.151 71.55 A 83.151 83.151 0 0 1 560.057 71.607 Q 559.522 71.926 559.295 72.05 A 3.034 3.034 0 0 1 559.201 72.1 A 5.781 5.781 0 0 0 559.029 72.341 Q 558.759 72.742 558.659 73.058 A 1.142 1.142 0 0 0 558.601 73.4 A 1.948 1.948 0 0 0 558.601 73.422 A 1.635 1.635 0 0 0 559.101 74.6 A 2.007 2.007 0 0 0 559.116 74.616 A 1.634 1.634 0 0 0 560.301 75.1 Q 560.788 75.1 562.167 74.374 A 27.157 27.157 0 0 0 562.851 74 Q 564.801 72.9 567.051 71.45 Q 569.301 70 571.351 68.65 A 308.459 308.459 0 0 0 572.043 68.193 Q 573.103 67.491 573.698 67.081 A 28.46 28.46 0 0 0 574.101 66.8 A 11.74 11.74 0 0 0 574.184 66.75 Q 574.557 66.522 575.245 66.069 A 118.712 118.712 0 0 0 575.801 65.7 Q 577.001 64.9 578.301 64.05 Q 579.601 63.2 580.651 62.45 Q 581.471 61.864 581.773 61.553 A 1.137 1.137 0 0 0 581.901 61.4 A 1.321 1.321 0 0 0 582.251 60.755 Z M 23.201 52.6 A 10.23 10.23 0 0 0 23.222 52.569 Q 23.901 51.592 23.901 51.1 A 1.948 1.948 0 0 0 23.901 51.078 A 1.635 1.635 0 0 0 23.401 49.9 A 2.007 2.007 0 0 0 23.385 49.885 A 1.634 1.634 0 0 0 22.201 49.4 Q 21.713 49.4 20.302 50.126 A 28.75 28.75 0 0 0 19.601 50.5 Q 17.601 51.6 15.351 53 Q 13.101 54.4 11.051 55.8 Q 9.001 57.2 8.201 57.7 Q 7.801 58 6.551 58.8 Q 5.301 59.6 4.001 60.45 Q 2.701 61.3 1.651 62.05 Q 0.83 62.636 0.529 62.947 A 1.137 1.137 0 0 0 0.401 63.1 A 1.321 1.321 0 0 0 0.05 63.745 A 1.976 1.976 0 0 0 0.001 64.2 Q 0.001 65.3 1.151 65.8 A 61.454 61.454 0 0 0 1.835 66.093 Q 2.551 66.394 3.101 66.6 Q 5.701 67.6 8.001 68.55 Q 10.301 69.5 12.551 70.55 Q 14.801 71.6 17.001 72.7 Q 19.201 73.8 21.701 75 A 1.641 1.641 0 0 0 21.935 75.058 Q 22.175 75.1 22.501 75.1 Q 23.201 75.1 23.701 74.65 A 1.473 1.473 0 0 0 24.091 74.101 A 1.598 1.598 0 0 0 24.201 73.5 A 1.436 1.436 0 0 0 24.07 72.904 Q 23.954 72.647 23.736 72.402 A 3.242 3.242 0 0 0 23.301 72 Q 22.301 71.5 21.251 71 Q 20.201 70.5 19.201 70 Q 15.701 68.3 12.151 66.8 Q 8.601 65.3 5.001 63.9 Q 7.901 61.9 10.751 59.85 Q 13.601 57.8 16.701 56.1 A 1.782 1.782 0 0 0 16.743 56.224 Q 17.077 57.1 18.201 57.1 A 0.693 0.693 0 0 0 18.229 57.1 Q 18.727 57.079 19.651 56.35 A 16.055 16.055 0 0 0 20.363 55.753 A 19.535 19.535 0 0 0 21.551 54.6 A 19.687 19.687 0 0 0 22.174 53.913 A 16.371 16.371 0 0 0 23.201 52.6 Z M 216.301 57.4 Q 216.301 59.1 215.601 60.6 Q 214.901 62.1 213.701 63.3 Q 212.501 64.5 211.001 65.35 A 10.071 10.071 0 0 1 208.2 66.439 A 9.488 9.488 0 0 1 207.901 66.5 Q 208.101 68.5 209.101 70.25 A 3.301 3.301 0 0 0 211.488 71.922 A 5.089 5.089 0 0 0 212.401 72 A 6.087 6.087 0 0 0 214.676 71.545 A 7.782 7.782 0 0 0 215.601 71.1 A 20.558 20.558 0 0 0 218.501 69.115 A 22.73 22.73 0 0 0 218.701 68.95 Q 220.201 67.7 221.501 66.25 A 49.51 49.51 0 0 0 222.562 65.029 Q 223.036 64.464 223.44 63.943 A 28.14 28.14 0 0 0 223.701 63.6 Q 224.301 62.9 224.851 62.15 Q 225.401 61.4 225.901 60.7 Q 226.501 59.9 227.301 59.9 A 1.634 1.634 0 0 1 228.485 60.385 A 2.007 2.007 0 0 1 228.501 60.4 A 1.635 1.635 0 0 1 229.001 61.578 A 1.948 1.948 0 0 1 229.001 61.6 A 1.943 1.943 0 0 1 228.817 62.41 Q 228.7 62.668 228.507 62.926 A 3.556 3.556 0 0 1 228.451 63 Q 228.073 63.481 227.765 63.868 A 125.312 125.312 0 0 1 227.501 64.2 Q 226.201 65.9 224.551 67.85 Q 222.901 69.8 220.951 71.45 A 21.622 21.622 0 0 1 217.119 74.061 A 20.146 20.146 0 0 1 216.851 74.2 Q 214.701 75.3 212.401 75.3 A 8.213 8.213 0 0 1 210.678 75.128 A 6.106 6.106 0 0 1 208.801 74.4 Q 207.301 73.5 206.351 72.05 A 10.437 10.437 0 0 1 205.04 69.135 A 11.886 11.886 0 0 1 204.951 68.8 Q 204.501 67 204.501 65.2 Q 204.501 63.4 204.951 61.25 A 16.803 16.803 0 0 1 205.854 58.281 A 14.847 14.847 0 0 1 206.301 57.3 Q 207.201 55.5 208.701 54.3 A 5.462 5.462 0 0 1 211.785 53.119 A 6.979 6.979 0 0 1 212.301 53.1 A 4.62 4.62 0 0 1 213.557 53.262 A 3.347 3.347 0 0 1 215.251 54.35 Q 216.301 55.6 216.301 57.4 Z M 99.401 57.1 Q 99.401 58.5 98.851 59.75 Q 98.301 61 97.701 62.1 A 2.867 2.867 0 0 0 97.41 62.745 Q 97.202 63.392 97.158 64.328 A 10.369 10.369 0 0 0 97.151 64.5 Q 97.101 66.1 97.101 67.1 A 12.353 12.353 0 0 0 97.115 67.667 Q 97.138 68.175 97.201 68.8 A 8.371 8.371 0 0 0 97.418 70.048 A 7.133 7.133 0 0 0 97.601 70.65 A 3.88 3.88 0 0 0 98.269 71.846 A 3.67 3.67 0 0 0 98.501 72.1 A 2.008 2.008 0 0 0 99.598 72.658 A 2.864 2.864 0 0 0 100.101 72.7 Q 101.501 72.7 103.051 71.6 A 22.666 22.666 0 0 0 105.158 69.899 A 26.79 26.79 0 0 0 106.101 69 Q 107.601 67.5 108.851 65.9 Q 110.101 64.3 110.801 63.3 Q 111.268 62.647 111.778 61.775 A 28.779 28.779 0 0 0 111.851 61.65 A 7.42 7.42 0 0 1 112.27 61.001 Q 112.492 60.696 112.722 60.459 A 3.624 3.624 0 0 1 113.001 60.2 Q 113.501 59.7 114.101 59.7 A 1.634 1.634 0 0 1 115.285 60.185 A 2.007 2.007 0 0 1 115.301 60.2 A 1.635 1.635 0 0 1 115.801 61.378 A 1.948 1.948 0 0 1 115.801 61.4 A 1.238 1.238 0 0 1 115.767 61.675 Q 115.705 61.944 115.532 62.293 A 5.207 5.207 0 0 1 115.451 62.45 A 13.51 13.51 0 0 1 114.762 63.588 A 15.001 15.001 0 0 1 114.651 63.75 Q 114.201 64.4 113.701 65.05 A 44.266 44.266 0 0 0 113.47 65.353 Q 113.151 65.775 113.001 66 Q 112.141 67.203 110.95 68.665 A 79.573 79.573 0 0 1 110.551 69.15 Q 109.101 70.9 107.401 72.4 A 21.387 21.387 0 0 1 104.311 74.681 A 19.61 19.61 0 0 1 103.851 74.95 A 8.251 8.251 0 0 1 101.871 75.769 A 6.951 6.951 0 0 1 100.101 76 A 7.397 7.397 0 0 1 98.8 75.892 Q 97.76 75.706 97.001 75.2 Q 95.801 74.4 95.101 73.1 A 9.605 9.605 0 0 1 94.257 70.91 A 11.301 11.301 0 0 1 94.101 70.2 A 17.269 17.269 0 0 1 93.815 67.761 A 15.343 15.343 0 0 1 93.801 67.1 A 25.155 25.155 0 0 1 93.807 66.578 Q 93.826 65.688 93.901 64.15 Q 94.001 62.1 94.401 60.05 Q 94.801 58 95.551 56.45 Q 96.301 54.9 97.601 54.9 A 2.221 2.221 0 0 1 98.129 54.959 A 1.319 1.319 0 0 1 99.001 55.6 Q 99.401 56.3 99.401 57.1 Z M 501.001 57.1 Q 501.001 58.5 500.451 59.75 Q 499.901 61 499.301 62.1 A 2.867 2.867 0 0 0 499.01 62.745 Q 498.802 63.392 498.758 64.328 A 10.369 10.369 0 0 0 498.751 64.5 Q 498.701 66.1 498.701 67.1 A 12.353 12.353 0 0 0 498.715 67.667 Q 498.738 68.175 498.801 68.8 A 8.371 8.371 0 0 0 499.018 70.048 A 7.133 7.133 0 0 0 499.201 70.65 A 3.88 3.88 0 0 0 499.869 71.846 A 3.67 3.67 0 0 0 500.101 72.1 A 2.008 2.008 0 0 0 501.198 72.658 A 2.864 2.864 0 0 0 501.701 72.7 Q 503.101 72.7 504.651 71.6 A 22.666 22.666 0 0 0 506.758 69.899 A 26.79 26.79 0 0 0 507.701 69 Q 509.201 67.5 510.451 65.9 Q 511.701 64.3 512.401 63.3 Q 512.868 62.647 513.378 61.775 A 28.779 28.779 0 0 0 513.451 61.65 A 7.42 7.42 0 0 1 513.87 61.001 Q 514.092 60.696 514.322 60.459 A 3.624 3.624 0 0 1 514.601 60.2 Q 515.101 59.7 515.701 59.7 A 1.634 1.634 0 0 1 516.885 60.185 A 2.007 2.007 0 0 1 516.901 60.2 A 1.635 1.635 0 0 1 517.401 61.378 A 1.948 1.948 0 0 1 517.401 61.4 A 1.238 1.238 0 0 1 517.367 61.675 Q 517.305 61.944 517.132 62.293 A 5.207 5.207 0 0 1 517.051 62.45 A 13.51 13.51 0 0 1 516.362 63.588 A 15.001 15.001 0 0 1 516.251 63.75 Q 515.801 64.4 515.301 65.05 A 44.266 44.266 0 0 0 515.07 65.353 Q 514.751 65.775 514.601 66 Q 513.741 67.203 512.55 68.665 A 79.573 79.573 0 0 1 512.151 69.15 Q 510.701 70.9 509.001 72.4 A 21.387 21.387 0 0 1 505.911 74.681 A 19.61 19.61 0 0 1 505.451 74.95 A 8.251 8.251 0 0 1 503.471 75.769 A 6.951 6.951 0 0 1 501.701 76 A 7.397 7.397 0 0 1 500.4 75.892 Q 499.36 75.706 498.601 75.2 Q 497.401 74.4 496.701 73.1 A 9.605 9.605 0 0 1 495.857 70.91 A 11.301 11.301 0 0 1 495.701 70.2 A 17.269 17.269 0 0 1 495.415 67.761 A 15.343 15.343 0 0 1 495.401 67.1 A 25.155 25.155 0 0 1 495.407 66.578 Q 495.426 65.688 495.501 64.15 Q 495.601 62.1 496.001 60.05 Q 496.401 58 497.151 56.45 Q 497.901 54.9 499.201 54.9 A 2.221 2.221 0 0 1 499.729 54.959 A 1.319 1.319 0 0 1 500.601 55.6 Q 501.001 56.3 501.001 57.1 Z M 146.701 10.2 L 146.401 10.6 Q 145.601 12.3 145.151 14.2 Q 144.701 16.1 144.301 18 Q 143.001 24.1 142.451 30.35 Q 141.901 36.6 141.801 42.9 A 50.351 50.351 0 0 0 143.072 39.319 A 63.497 63.497 0 0 0 143.951 36.25 Q 144.901 32.6 145.651 28.9 Q 146.401 25.2 146.801 21.65 Q 147.201 18.1 147.201 15.2 L 147.201 13.25 Q 147.201 12.3 147.001 11.3 A 0.952 0.952 0 0 1 146.906 10.965 A 1.169 1.169 0 0 1 146.901 10.85 A 1.077 1.077 0 0 0 146.869 10.585 A 0.913 0.913 0 0 0 146.801 10.4 L 146.701 10.2 Z M 256.001 10.2 L 255.701 10.6 Q 254.901 12.3 254.451 14.2 Q 254.001 16.1 253.601 18 Q 252.301 24.1 251.751 30.35 Q 251.201 36.6 251.101 42.9 A 50.351 50.351 0 0 0 252.372 39.319 A 63.497 63.497 0 0 0 253.251 36.25 Q 254.201 32.6 254.951 28.9 Q 255.701 25.2 256.101 21.65 Q 256.501 18.1 256.501 15.2 L 256.501 13.25 Q 256.501 12.3 256.301 11.3 A 0.952 0.952 0 0 1 256.206 10.965 A 1.169 1.169 0 0 1 256.201 10.85 A 1.077 1.077 0 0 0 256.169 10.585 A 0.913 0.913 0 0 0 256.101 10.4 L 256.001 10.2 Z M 123.201 83.1 Q 119.501 88 116.951 93.3 A 25.647 25.647 0 0 0 114.702 100.299 A 22.916 22.916 0 0 0 114.401 104 L 114.401 104.95 Q 114.401 105.6 114.551 106.25 A 4.308 4.308 0 0 0 114.774 106.952 A 3.524 3.524 0 0 0 115.001 107.4 Q 115.301 107.9 115.901 107.9 A 1.908 1.908 0 0 0 117.262 107.338 A 2.504 2.504 0 0 0 117.301 107.3 A 17.631 17.631 0 0 0 117.723 106.864 Q 118.051 106.513 118.301 106.2 Q 119.423 104.646 120.247 102.347 A 23.768 23.768 0 0 0 120.501 101.6 A 48.432 48.432 0 0 0 121.682 97.203 A 55.213 55.213 0 0 0 122.001 95.65 Q 122.601 92.5 122.851 89.2 Q 123.101 85.9 123.201 83.1 Z M 431.301 83.1 Q 427.601 88 425.051 93.3 A 25.647 25.647 0 0 0 422.802 100.299 A 22.916 22.916 0 0 0 422.501 104 L 422.501 104.95 Q 422.501 105.6 422.651 106.25 A 4.308 4.308 0 0 0 422.874 106.952 A 3.524 3.524 0 0 0 423.101 107.4 Q 423.401 107.9 424.001 107.9 A 1.908 1.908 0 0 0 425.362 107.338 A 2.504 2.504 0 0 0 425.401 107.3 A 17.631 17.631 0 0 0 425.823 106.864 Q 426.151 106.513 426.401 106.2 Q 427.523 104.646 428.347 102.347 A 23.768 23.768 0 0 0 428.601 101.6 A 48.432 48.432 0 0 0 429.782 97.203 A 55.213 55.213 0 0 0 430.101 95.65 Q 430.701 92.5 430.951 89.2 Q 431.201 85.9 431.301 83.1 Z M 207.901 63.1 A 8.545 8.545 0 0 0 210.958 61.361 A 10.129 10.129 0 0 0 211.351 61 Q 212.901 59.5 212.901 57.4 A 5.339 5.339 0 0 0 212.896 57.165 Q 212.885 56.922 212.851 56.75 Q 212.807 56.531 212.416 56.504 A 1.691 1.691 0 0 0 212.301 56.5 A 2.781 2.781 0 0 0 210.501 57.15 Q 209.701 57.8 209.201 58.75 A 9.426 9.426 0 0 0 208.569 60.27 A 11.061 11.061 0 0 0 208.401 60.85 A 30.968 30.968 0 0 0 207.952 62.824 A 28.269 28.269 0 0 0 207.901 63.1 Z M 97.11 46.93 A 3.167 3.167 0 0 0 97.001 47.8 A 3.241 3.241 0 0 0 97.095 48.615 Q 97.354 49.611 98.33 49.891 A 3.167 3.167 0 0 0 99.201 50 A 3.241 3.241 0 0 0 100.015 49.906 Q 101.012 49.647 101.292 48.671 A 3.167 3.167 0 0 0 101.401 47.8 A 3.241 3.241 0 0 0 101.307 46.985 Q 101.048 45.989 100.071 45.709 A 3.167 3.167 0 0 0 99.201 45.6 A 3.241 3.241 0 0 0 98.386 45.694 Q 97.389 45.953 97.11 46.93 Z M 498.71 46.93 A 3.167 3.167 0 0 0 498.601 47.8 A 3.241 3.241 0 0 0 498.695 48.615 Q 498.954 49.611 499.93 49.891 A 3.167 3.167 0 0 0 500.801 50 A 3.241 3.241 0 0 0 501.615 49.906 Q 502.612 49.647 502.892 48.671 A 3.167 3.167 0 0 0 503.001 47.8 A 3.241 3.241 0 0 0 502.907 46.985 Q 502.648 45.989 501.671 45.709 A 3.167 3.167 0 0 0 500.801 45.6 A 3.241 3.241 0 0 0 499.986 45.694 Q 498.989 45.953 498.71 46.93 Z M 233.801 81.4 L 234.701 81.4 A 1.383 1.383 0 0 0 235.672 81.003 A 2.083 2.083 0 0 0 235.901 80.75 A 2.976 2.976 0 0 0 236.183 80.314 Q 236.317 80.056 236.369 79.807 A 1.514 1.514 0 0 0 236.401 79.5 Q 236.401 79.1 236.144 78.378 A 10.488 10.488 0 0 0 236.001 78 Q 234.525 79.632 234.014 80.781 A 3.447 3.447 0 0 0 233.801 81.4 Z" vector-effect="non-scaling-stroke"/></g></svg>